<svg width="92" height="73" viewBox="0 0 92 73" fill="none" xmlns="http://www.w3.org/2000/svg">
<path fill-rule="evenodd" clip-rule="evenodd" d="M45.7606 69.6461C63.2594 69.6461 77.445 55.5221 77.445 38.0992C77.445 20.6764 63.2594 6.55237 45.7606 6.55237C28.2618 6.55237 14.0762 20.6764 14.0762 38.0992C14.0762 55.5221 28.2618 69.6461 45.7606 69.6461Z" stroke="#52AE30" stroke-width="2"/>
<g opacity="0.5">
<path d="M58.7317 4.38095C59.2481 4.57689 59.8255 4.31714 60.0215 3.80078C60.2174 3.28442 59.9576 2.70699 59.4413 2.51105L58.7317 4.38095ZM53.0643 0.699808C52.5221 0.595051 51.9976 0.949716 51.8928 1.49197C51.788 2.03423 52.1427 2.55874 52.685 2.6635L53.0643 0.699808ZM45.762 2C46.3143 2 46.762 1.55228 46.762 1C46.762 0.447715 46.3143 0 45.762 0V2ZM15.7055 16.1666L16.5101 16.7605L16.5104 16.76L15.7055 16.1666ZM7.50054 38.1013C7.50143 38.6536 7.94988 39.1006 8.50216 39.0997C9.05444 39.0988 9.50143 38.6504 9.50054 38.0981L7.50054 38.1013ZM59.4413 2.51105C57.3719 1.72578 55.2383 1.11979 53.0643 0.699808L52.685 2.6635C54.7464 3.06175 56.7695 3.63637 58.7317 4.38095L59.4413 2.51105ZM45.762 0C33.094 0 21.8632 6.13068 14.9007 15.5731L16.5104 16.76C23.1108 7.8087 33.7539 2 45.762 2V0ZM14.901 15.5727C10.0811 22.102 7.48738 29.9971 7.50054 38.1013L9.50054 38.0981C9.48808 30.4232 11.9443 22.9455 16.5101 16.7605L14.901 15.5727Z" fill="#52AE30"/>
</g>
<path d="M59.9608 28.2034L38.6623 47.9951L31.5635 40.9271" stroke="#52AE30" stroke-width="2" stroke-linecap="round" stroke-linejoin="round"/>
<g opacity="0.5">
<path fill-rule="evenodd" clip-rule="evenodd" d="M76.4307 7.07739C77.2373 7.07739 77.8912 6.42635 77.8912 5.62326C77.8912 4.82016 77.2373 4.16913 76.4307 4.16913C75.6241 4.16913 74.9702 4.82016 74.9702 5.62326C74.9702 6.42635 75.6241 7.07739 76.4307 7.07739Z" stroke="#52AE30"/>
<path d="M79.3526 67.1801C80.1592 67.1801 80.813 66.529 80.813 65.7259C80.813 64.9228 80.1592 64.2718 79.3526 64.2718C78.546 64.2718 77.8921 64.9228 77.8921 65.7259C77.8921 66.529 78.546 67.1801 79.3526 67.1801Z" fill="#52AE30" fill-opacity="0.5"/>
</g>
<g opacity="0.5">
<path d="M81.7842 15.8348H84.7051V13.8348H81.7842V15.8348ZM88.6007 15.8348H91.5217V13.8348H88.6007V15.8348ZM85.6535 16.7732V19.6814H87.6535V16.7732H85.6535ZM87.6535 12.8948V9.98657H85.6535V12.8948H87.6535Z" fill="#52AE30"/>
</g>
<g opacity="0.5">
<path d="M0 67.2145H4.86823V65.2145H0V67.2145ZM8.7614 67.2145H13.6296V65.2145H8.7614V67.2145ZM5.81415 68.1529V73H7.81415V68.1529H5.81415ZM7.81475 64.275V59.4279H5.81475V64.275H7.81475Z" fill="#52AE30"/>
</g>
</svg>
