<svg width="25" height="10" viewBox="0 0 25 10" fill="none" xmlns="http://www.w3.org/2000/svg">
<path d="M2.39359 9.12C4.24159 9.12 5.39359 8.04 5.39359 6.24C5.39359 4.584 4.27759 3.612 2.68159 3.612C2.39359 3.612 2.09359 3.636 1.76959 3.684L1.87759 1.428H4.92559V0.599999H0.977594L0.797594 4.644L0.929594 4.764C1.39759 4.56 1.92559 4.44 2.47759 4.44C3.56959 4.44 4.43359 4.992 4.43359 6.24C4.43359 7.608 3.58159 8.28 2.42959 8.28C1.84159 8.28 1.22959 8.112 0.665594 7.812V8.736C1.16959 8.976 1.80559 9.12 2.39359 9.12ZM9.52131 9.168C11.2253 9.168 12.3293 7.932 12.3293 6.192C12.3293 4.644 11.3693 3.516 9.73731 3.516C8.94531 3.516 8.20131 3.84 7.74531 4.38H7.73331C7.79331 2.424 8.58531 1.332 9.91731 1.332C10.6133 1.332 11.1173 1.44 11.6813 1.668V0.852C11.1293 0.611999 10.5173 0.491999 9.86931 0.491999C7.75731 0.491999 6.65331 2.184 6.65331 5.424C6.65331 7.8 7.54131 9.168 9.52131 9.168ZM9.48531 8.328C8.50131 8.328 7.73331 7.572 7.73331 6.336C7.73331 5.136 8.50131 4.356 9.65331 4.356C10.5893 4.356 11.3693 4.956 11.3693 6.192C11.3693 7.464 10.6973 8.328 9.48531 8.328ZM13.7479 9H14.7439L17.8039 0.779999V0.599999H12.7519V1.428H15.9439C16.1479 1.428 16.3519 1.428 16.5679 1.416V1.428C16.4959 1.608 16.4479 1.728 16.3879 1.896L13.7479 9ZM21.4387 9.168C23.1547 9.168 24.3547 8.256 24.3547 6.72C24.3547 5.628 23.8267 4.812 22.7587 4.464C23.6107 4.212 24.0907 3.528 24.0907 2.676C24.0907 1.32 22.9867 0.431999 21.4387 0.431999C19.9027 0.431999 18.8107 1.32 18.8107 2.676C18.8107 3.528 19.2907 4.212 20.1307 4.464C19.1467 4.8 18.5347 5.628 18.5347 6.708C18.5347 8.244 19.7227 9.168 21.4387 9.168ZM21.4387 4.08C20.2987 4.08 19.7707 3.408 19.7707 2.7C19.7707 1.992 20.3347 1.272 21.4387 1.272C22.6267 1.272 23.1307 1.992 23.1307 2.7C23.1307 3.408 22.5787 4.08 21.4387 4.08ZM21.4387 8.328C20.2987 8.328 19.4947 7.632 19.4947 6.588C19.4947 5.616 20.2867 4.98 21.4387 4.98C22.6147 4.98 23.3947 5.604 23.3947 6.588C23.3947 7.632 22.6147 8.328 21.4387 8.328Z" fill="white"/>
</svg>
