<svg width="18" height="17" viewBox="0 0 18 17" fill="none" xmlns="http://www.w3.org/2000/svg">
<path d="M13.0144 14.5199V16.2451H0.999981L0.999981 5.8104L5.20503 1.24521L13.0144 1.24521L13.0144 6.58171" stroke="#52AE30" stroke-linecap="round" stroke-linejoin="round"/>
<path d="M5.20444 1.24487L5.20444 5.81006L0.999389 5.81006" stroke="#52AE30" stroke-linecap="round" stroke-linejoin="round"/>
<path d="M5.37805 10.6951V9.39024H6.12195C6.23171 9.39024 6.3374 9.39837 6.43902 9.41463C6.54065 9.43089 6.63008 9.46341 6.70732 9.5122C6.78455 9.55691 6.84553 9.62195 6.89024 9.70732C6.93902 9.79268 6.96341 9.90447 6.96341 10.0427C6.96341 10.1809 6.93902 10.2927 6.89024 10.378C6.84553 10.4634 6.78455 10.5305 6.70732 10.5793C6.63008 10.624 6.54065 10.6545 6.43902 10.6707C6.3374 10.687 6.23171 10.6951 6.12195 10.6951H5.37805ZM4.42073 8.64634V13H5.37805V11.439H6.38415C6.6565 11.439 6.88821 11.4004 7.07927 11.3232C7.27033 11.2419 7.4248 11.1362 7.54268 11.0061C7.66463 10.876 7.75203 10.7276 7.80488 10.561C7.86179 10.3902 7.89024 10.2175 7.89024 10.0427C7.89024 9.86382 7.86179 9.69106 7.80488 9.52439C7.75203 9.35772 7.66463 9.20935 7.54268 9.07927C7.4248 8.94919 7.27033 8.84553 7.07927 8.76829C6.88821 8.68699 6.6565 8.64634 6.38415 8.64634H4.42073ZM9.44445 12.1951V9.45122H10.1274C10.3632 9.45122 10.5603 9.48577 10.7188 9.55488C10.8814 9.61992 11.0115 9.71545 11.1091 9.84146C11.2067 9.96748 11.2758 10.1199 11.3164 10.2988C11.3611 10.4736 11.3835 10.6707 11.3835 10.8902C11.3835 11.1301 11.353 11.3333 11.292 11.5C11.231 11.6667 11.1497 11.8028 11.0481 11.9085C10.9465 12.0102 10.8306 12.0833 10.7006 12.128C10.5705 12.1728 10.4363 12.1951 10.2981 12.1951H9.44445ZM8.48714 8.64634V13H10.3652C10.6985 13 10.9871 12.9451 11.231 12.8354C11.479 12.7215 11.6843 12.5671 11.8469 12.372C12.0136 12.1768 12.1375 11.9451 12.2188 11.6768C12.3001 11.4085 12.3408 11.1159 12.3408 10.7988C12.3408 10.437 12.29 10.122 12.1884 9.85366C12.0908 9.58537 11.9526 9.36179 11.7737 9.18293C11.5989 9.00407 11.3896 8.86992 11.1457 8.78049C10.9058 8.69106 10.6457 8.64634 10.3652 8.64634H8.48714ZM13.0047 8.64634V13H13.962V11.2012H15.7852V10.4573H13.962V9.45122H16.0657V8.64634H13.0047Z" fill="#52AE30"/>
</svg>
