<svg width="18" height="18" viewBox="0 0 18 18" fill="none" xmlns="http://www.w3.org/2000/svg">
<path fill-rule="evenodd" clip-rule="evenodd" d="M13.2432 4.75713C12.8527 4.3666 12.2195 4.3666 11.829 4.75713L9.00024 7.58588L6.17149 4.75713C5.78097 4.3666 5.1478 4.3666 4.75728 4.75713C4.36675 5.14765 4.36675 5.78082 4.75728 6.17134L7.58603 9.00009L4.75793 11.8282C4.3674 12.2187 4.3674 12.8519 4.75793 13.2424C5.14845 13.6329 5.78162 13.6329 6.17214 13.2424L9.00024 10.4143L11.8283 13.2424C12.2189 13.6329 12.852 13.6329 13.2426 13.2424C13.6331 12.8519 13.6331 12.2187 13.2426 11.8282L10.4145 9.00009L13.2432 6.17134C13.6337 5.78081 13.6337 5.14765 13.2432 4.75713Z" fill="#52AE30"/>
</svg>
