<svg width="92" height="73" viewBox="0 0 92 73" fill="none" xmlns="http://www.w3.org/2000/svg">
<path fill-rule="evenodd" clip-rule="evenodd" d="M45.7627 69.6541C63.2621 69.6541 77.4482 55.5286 77.4482 38.104C77.4482 20.6794 63.2621 6.55402 45.7627 6.55402C28.2632 6.55402 14.0771 20.6794 14.0771 38.104C14.0771 55.5286 28.2632 69.6541 45.7627 69.6541Z" stroke="#FF435A" stroke-width="2"/>
<g opacity="0.5">
<path d="M58.7311 4.3789C59.2474 4.57485 59.8248 4.31511 60.0208 3.79875C60.2167 3.2824 59.957 2.70496 59.4407 2.50901L58.7311 4.3789ZM53.0635 0.697589C52.5212 0.592825 51.9967 0.947484 51.8919 1.48974C51.7872 2.032 52.1418 2.55651 52.6841 2.66128L53.0635 0.697589ZM45.7638 2C46.3161 2 46.7638 1.55228 46.7638 1C46.7638 0.447715 46.3161 0 45.7638 0V2ZM15.7063 16.1681L16.5108 16.762L16.5111 16.7615L15.7063 16.1681ZM7.50103 38.105C7.50192 38.6573 7.95036 39.1043 8.50265 39.1034C9.05493 39.1025 9.50192 38.6541 9.50102 38.1018L7.50103 38.105ZM59.4407 2.50901C57.3712 1.72367 55.2375 1.11762 53.0635 0.697589L52.6841 2.66128C54.7456 3.05957 56.7688 3.63424 58.7311 4.3789L59.4407 2.50901ZM45.7638 0C33.0953 0 21.8641 6.1313 14.9014 15.5746L16.5111 16.7615C23.1118 7.80927 33.7553 2 45.7638 2V0ZM14.9017 15.5742C10.0816 22.1042 7.48787 30 7.50103 38.105L9.50102 38.1018C9.48857 30.4261 11.9449 22.9476 16.5108 16.762L14.9017 15.5742Z" fill="#FF435A"/>
</g>
<path d="M36.4307 29.2974L55.0929 47.8798" stroke="#FF435A" stroke-width="2" stroke-linecap="round" stroke-linejoin="round"/>
<path d="M55.0929 29.2974L36.4307 47.8798" stroke="#FF435A" stroke-width="2" stroke-linecap="round" stroke-linejoin="round"/>
<g opacity="0.5">
<path fill-rule="evenodd" clip-rule="evenodd" d="M76.4342 7.0775C77.2408 7.0775 77.8947 6.42639 77.8947 5.62322C77.8947 4.82005 77.2408 4.16895 76.4342 4.16895C75.6275 4.16895 74.9736 4.82005 74.9736 5.62322C74.9736 6.42639 75.6275 7.0775 76.4342 7.0775Z" stroke="#FF435A"/>
<path d="M79.3541 67.187C80.1607 67.187 80.8146 66.5359 80.8146 65.7327C80.8146 64.9295 80.1607 64.2784 79.3541 64.2784C78.5475 64.2784 77.8936 64.9295 77.8936 65.7327C77.8936 66.5359 78.5475 67.187 79.3541 67.187Z" fill="#FF435A" fill-opacity="0.5"/>
</g>
<g opacity="0.5">
<path d="M81.7881 15.8276H84.7091V13.8276H81.7881V15.8276ZM88.6024 15.8276H91.5234V13.8276H88.6024V15.8276ZM85.6575 16.7708V19.6794H87.6575V16.7708H85.6575ZM87.6575 12.8901V9.98157H85.6575V12.8901H87.6575Z" fill="#FF435A"/>
</g>
<g opacity="0.5">
<path d="M0 67.2187H4.8684V65.2187H0V67.2187ZM8.76157 67.2187H13.63V65.2187H8.76157V67.2187ZM5.81429 68.1524V73H7.81429V68.1524H5.81429ZM7.81548 64.2762V59.4286H5.81548V64.2762H7.81548Z" fill="#FF435A"/>
</g>
</svg>
