<svg width="27" height="16" viewBox="0 0 27 16" fill="none" xmlns="http://www.w3.org/2000/svg">
<path d="M14.8481 2.74638C15.2577 3.21123 15.6144 3.72289 15.908 4.27279C16.5027 5.38661 16.8413 6.65466 16.8413 8.00004C16.8413 9.34542 16.5027 10.6133 15.908 11.7273C15.6144 12.2772 15.2577 12.7887 14.8481 13.2535C14.4265 13.732 13.9488 14.16 13.4246 14.5282C14.7422 15.4535 16.3493 16 18.0837 16C22.5368 16 26.1597 12.4112 26.1597 8.00004C26.1597 3.58891 22.5368 0 18.0837 0C16.3493 0 14.7422 0.546246 13.4246 1.47175C13.9486 1.83999 14.4264 2.26812 14.8481 2.74638Z" fill="#FFB655"/>
<path d="M15.9989 4.27265C15.6903 3.72259 15.3152 3.21109 14.8846 2.74623C14.4412 2.26781 13.9391 1.83992 13.3881 1.47176C12.0031 0.546247 10.3134 0 8.49001 0C3.80858 0 0 3.58885 0 8C0 12.4112 3.80867 16 8.49001 16C10.3134 16 12.0031 15.4537 13.3881 14.5282C13.9392 14.1601 14.4413 13.732 14.8846 13.2537C15.3152 12.7888 15.6903 12.2772 15.9989 11.7274C16.6242 10.6134 16.9801 9.34539 16.9801 8.00016C16.9801 6.65445 16.6242 5.38648 15.9989 4.27265Z" fill="#D8143A"/>
</svg>
