<?xml version="1.0" encoding="utf-8"?>
<!-- Generator: Adobe Illustrator 24.0.1, SVG Export Plug-In . SVG Version: 6.00 Build 0)  -->
<svg version="1.1" id="Слой_1" xmlns="http://www.w3.org/2000/svg" xmlns:xlink="http://www.w3.org/1999/xlink" x="0px" y="0px"
	 viewBox="0 0 122 24" style="enable-background:new 0 0 122 24;" xml:space="preserve">
<style type="text/css">
	.st0{clip-path:url(#SVGID_2_);}
	.st1{fill-rule:evenodd;clip-rule:evenodd;fill:#006539;}
	.st2{fill:#52AE32;}
	.st3{fill:#006539;}
</style>
<g>
	<defs>
		<rect id="SVGID_1_" y="0" width="121.4" height="24"/>
	</defs>
	<clipPath id="SVGID_2_">
		<use xlink:href="#SVGID_1_"  style="overflow:visible;"/>
	</clipPath>
	<g class="st0">
		<path class="st1" d="M0,12C0,5.4,5.4,0,12,0v4.3c-4.2,0-7.6,3.4-7.6,7.7c0,4.2,3.4,7.7,7.7,7.7c4.2,0,7.7-3.4,7.7-7.7H24
			c0,6.7-5.4,12-12,12C5.4,24,0,18.6,0,12z"/>
		<path class="st2" d="M6.7,12c0-2.9,2.4-5.3,5.3-5.3c2.9,0,5.3,2.4,5.3,5.3c0,2.9-2.4,5.3-5.3,5.3C9.1,17.3,6.7,14.9,6.7,12z"/>
		<path class="st3" d="M15.7,5.3c0-1.7,1.4-3.1,3.1-3.1c1.7,0,3.1,1.4,3.1,3.1s-1.4,3.1-3.1,3.1C17.1,8.3,15.7,6.9,15.7,5.3z"/>
		<path class="st2" d="M109.4,8.3l-0.4,1.8c-0.9,4-1.2,5.2-1.9,9.2l-0.2,0.1l-2.4,0.1l-0.1-0.2l1-4.1l0.3-1.3c-1,0-2.1,0-3.1,0
			c-0.8,0-1.4,0-2,0c-0.4,1.6-0.7,3-1.1,5.3l-0.2,0.1l-2.4,0.1l-0.1-0.2l1-4.1l0.4-1.8c0.6-2.8,0.8-3.4,1.1-6l0.2-0.2
			c1.1-0.1,1.4-0.2,2.5-0.4l0.1,0.2l-0.3,1.2l-0.4,1.8l-0.4,1.7c0.9,0,1.7,0,2.6,0c0.9,0,1.5,0,2.5,0c0.3-1.5,0.5-2.3,0.8-4.3
			l0.2-0.2c1.1-0.1,1.4-0.2,2.5-0.4l0.1,0.2L109.4,8.3z"/>
		<path class="st2" d="M80.5,13.6c0.2-0.7,0.3-1.4,0.3-2c0-2.4-1.5-2.8-2.4-2.8c-3.7,0-4.2,5.8-4.2,6.7c0,1.9,1.1,2.7,2.4,2.7
			C79.1,18.1,80,15.5,80.5,13.6z M82.9,14.3c-0.5,2-2,5.6-6.4,5.6c-3.2,0-4.9-1.6-4.9-4.9c0-0.4,0-0.9,0.1-1.4c0-0.1,0-0.2,0-0.4
			C72.7,8,75,2.9,80,2.9c0.7,0,2-0.1,3-0.3l-0.4,2.1c-0.9,0.2-2.4,0.4-3.3,0.4c-1.1,0-1.8,0.4-2.3,0.9c-0.3,0.2-0.5,0.5-0.6,0.8
			c-0.1,0.2-0.3,0.5-0.3,0.6C76.8,7.2,77.5,7,78.3,7c3.1,0,4.9,1.7,4.9,4.8C83.3,12.6,83.1,13.5,82.9,14.3z"/>
		<path class="st2" d="M113.5,12.1c0.6-0.5,0.9-0.8,1.7-1.6c0.8-0.8,2.8-2.9,3.2-3.3l0.3-0.1h2.7l0.1,0.2c-0.2,0.2-0.4,0.3-1.3,1.1
			c-0.4,0.3-0.6,0.5-1.1,0.9l-3.1,2.8l3.7,7l-0.1,0.2l-2.6,0.1l-0.2-0.1c-0.6-1.5-0.8-1.8-1.6-3.5l-1.7-3.3
			c-0.5,2.3-0.8,3.8-1.4,6.8l-0.2,0.1l-2.4,0.1l-0.1-0.2l1-4.1l0.4-1.8c0.6-2.8,0.8-3.4,1.1-6l0.2-0.2c1.1-0.1,1.4-0.2,2.5-0.4
			l0.1,0.2l-0.3,1.2l-0.4,1.8L113.5,12.1z"/>
		<path class="st2" d="M92.6,16.4c-0.3,0.2-0.5,0.4-0.8,0.6c-0.6,0.4-1.4,0.5-2.1,0.5c-2.2,0-2.8-1.8-2.8-2.9c0-0.1,0-3.2,2.5-4.9
			c1.4-0.9,2.9-1,3.7-1c0.4,0,0.7,0,1.1,0L92.6,16.4z M97.2,7.2L97,7l-3.3,0c-2.2,0-5.2,0.1-7.4,2.7c-1,1.2-1.9,3.2-1.9,5.1
			c0,2.9,2,4.7,4.4,4.7c2,0,3.1-0.9,3.5-1.2l-0.2,0.9l0.1,0.2l2.2,0l0.2-0.2c0.5-2.8,0.6-3.7,1.5-7.3L97.2,7.2z"/>
		<path class="st3" d="M34.7,19.8c-2.6,0-6.3-0.8-4.9-6.7c0.5-2.2,2-6.9,8.4-6.9c6.1,0,5.2,5,4.9,6.8C41.9,18,38.8,19.8,34.7,19.8z
			 M35.6,17.2c1.8,0,2.7-1.9,3.2-4.3c0.4-1.7,0.8-4.2-1.4-4.2c-1.9,0-2.7,1.8-3.2,4.2C33.7,15.1,33.6,17.2,35.6,17.2z"/>
		<path class="st3" d="M49.8,19.5c-1.2,0-3.1,0-4,0l-0.1-0.1c0.2-0.8,0.8-2.9,1.4-5.5c0.5-2.1,0.9-4,1.1-4.8c-1,0-2.5,0-3.3,0
			l-0.1-0.2c0.2-0.6,0.5-1.7,0.7-2.4l0.2-0.1c0.7,0,3.2,0,5.2,0c2.4,0,4.8,0,5.3-0.1l0.2,0.1c-0.2,0.6-0.5,1.8-0.7,2.4l-0.2,0.1
			c-1,0-1.7,0-3.1,0c-0.1,0.5-0.5,2.1-1.1,4.9c-0.5,2.1-0.9,4.1-1.1,5.3L49.8,19.5z"/>
		<path class="st3" d="M63.5,9.4c-0.8,0-1.7,0-2.1,0C61.3,10,60.8,12,60.4,14c-0.5,2.3-1,4.5-1.2,5.4L59,19.5c-1.2,0-2.8,0-4,0
			l-0.1-0.1c0.3-1,0.9-3.8,1.5-6.5c0.6-2.8,1.2-5.5,1.3-6.3l0.2-0.2c1.3,0,2.7,0,6,0c2.6,0,5.1-0.1,6.4-0.1l0.1,0.1
			c-0.2,0.7-0.9,3.9-1.6,7c-0.6,2.5-1.1,5.1-1.2,5.8l-0.2,0.1c-1.1,0-3,0-4,0l-0.1-0.2c0.2-0.9,0.7-2.9,1.3-5.3
			c0.4-1.9,0.8-3.9,1-4.6C65.1,9.4,64.3,9.4,63.5,9.4z"/>
	</g>
</g>
</svg>
